HIERARCHY
ROOT Hip
{
  OFFSET 0.0 0.0 0.0
  CHANNELS 6 Xposition Yposition Zposition Xrotation Yrotation Zrotation
  JOINT LowerSpine
  {
    OFFSET 0.0 0.061367 -0.03653
    CHANNELS 3 Xrotation Yrotation Zrotation
    JOINT MiddleSpine
    {
      OFFSET 0.0 0.056002 0.002633
      CHANNELS 3 Xrotation Yrotation Zrotation
      JOINT Chest
      {
        OFFSET 0.0 0.069296 -0.013882
        CHANNELS 3 Xrotation Yrotation Zrotation
        JOINT Neck
        {
          OFFSET 0.0 0.156156 -0.002923
          CHANNELS 3 Xrotation Yrotation Zrotation
          JOINT Head
          {
            OFFSET 0.0 0.088183 0.023986
            CHANNELS 3 Xrotation Yrotation Zrotation
            End Site
            {
              OFFSET 1e-06 0.123215 0.003678
            }
          }
        }
        JOINT LClavicle
        {
          OFFSET 0.014189 0.150698 0.046467
          CHANNELS 3 Xrotation Yrotation Zrotation
          JOINT LShoulder
          {
            OFFSET 0.082893 0.021616 -0.034976
            CHANNELS 3 Xrotation Yrotation Zrotation
            JOINT LForearm
            {
              OFFSET 0.195645 -0.000695 -0.001695
              CHANNELS 3 Xrotation Yrotation Zrotation
              JOINT LHand
              {
                OFFSET 0.163209 0.000474 -0.000977
                CHANNELS 3 Xrotation Yrotation Zrotation
                End Site
                {
                  OFFSET 0.0 0.006864 0.0
                }
              }
            }
          }
        }
        JOINT RClavicle
        {
          OFFSET -0.014189 0.150698 0.046467
          CHANNELS 3 Xrotation Yrotation Zrotation
          JOINT RShoulder
          {
            OFFSET -0.082908 0.021619 -0.034982
            CHANNELS 3 Xrotation Yrotation Zrotation
            JOINT RForearm
            {
              OFFSET -0.195645 -0.000695 -0.001695
              CHANNELS 3 Xrotation Yrotation Zrotation
              JOINT RHand
              {
                OFFSET -0.163209 0.000474 -0.000977
                CHANNELS 3 Xrotation Yrotation Zrotation
                End Site
                {
                  OFFSET 0.0 0.006864 0.0
                }
              }
            }
          }
        }
      }
    }
  }
  JOINT RThigh
  {
    OFFSET -0.072558 0.02774 -0.005953
    CHANNELS 3 Xrotation Yrotation Zrotation
    JOINT RShin
    {
      OFFSET -0.005253 -0.285537 0.0
      CHANNELS 3 Xrotation Yrotation Zrotation
      JOINT RFoot
      {
        OFFSET 0.0 -0.28038 0.0
        CHANNELS 3 Xrotation Yrotation Zrotation
        JOINT RToe
        {
          OFFSET 0.0 -0.030816 0.064441
          CHANNELS 3 Xrotation Yrotation Zrotation
          End Site
          {
            OFFSET 0.0 0.0 0.043231
          }
        }
      }
    }
  }
  JOINT LThigh
  {
    OFFSET 0.072557 0.027741 -0.005953
    CHANNELS 3 Xrotation Yrotation Zrotation
    JOINT LShin
    {
      OFFSET 0.005253 -0.285539 0.0
      CHANNELS 3 Xrotation Yrotation Zrotation
      JOINT LFoot
      {
        OFFSET 0.0 -0.28038 0.0
        CHANNELS 3 Xrotation Yrotation Zrotation
        JOINT LToe
        {
          OFFSET 0.0 -0.030816 0.064441
          CHANNELS 3 Xrotation Yrotation Zrotation
          End Site
          {
            OFFSET 0.0 0.0 0.043231
          }
        }
      }
    }
  }
}
MOTION
Frames: 12
Frame Time: 0.03333333333333333
-0.004585 0.550187 1.662857 31.959459 -71.573936 32.440983 -1.957844 -0.585643 0.591633 -1.994043 0.073244 1.036175 -6.968802 1.032321 2.553886 -1.175071 0.668673 -0.453589 0.04815 -0.246814 0.105667 1.123325 -0.05165 -18.422091 19.371582 -22.600975 -71.372833 3.653172 -18.688065 -0.491823 0.102238 0.170763 -0.092423 0.970966 -2.250726 16.776243 13.744892 24.381258 65.579002 -2.434793 19.58918 2.013852 -0.191083 -0.113089 -0.028693 0.130097 -4.45957 8.572697 9.221656 -5.184377 -0.293792 -2.279345 1.203804 -0.280227 -0.419356 0.286865 0.149897 -23.675274 -2.000153 -6.04847 6.082245 -2.868383 3.208701 -0.187397 0.358358 0.680957 0.141678 -0.183848 -0.095718 
-0.015375 0.549854 1.667866 40.404507 -74.977661 41.14954 -2.032886 -0.632915 0.606002 -1.900952 0.08038 0.986953 -5.935693 1.080276 2.485321 -1.176007 0.66584 -0.44827 0.046733 -0.246882 0.1018 1.20283 -0.002385 -18.599413 17.993347 -23.571651 -71.146431 3.390867 -18.104322 -0.516144 0.104567 0.175056 -0.094801 1.024153 -2.366937 16.902636 13.60819 25.991447 64.958473 -2.102236 18.61882 2.063064 -0.183559 -0.122134 -0.026078 -0.537412 -4.523657 7.787999 10.230657 -5.351355 -0.138891 -2.227109 1.079458 -0.323928 -0.41535 0.286952 0.148683 -22.036591 -2.2802 -6.012851 5.290563 -3.317168 3.351884 -0.328207 0.31328 0.670484 0.14902 -0.18504 -0.091361 
-0.029913 0.550271 1.674146 52.220142 -77.241928 53.212288 -2.054864 -0.694476 0.599757 -1.817197 0.087998 0.933265 -5.008119 1.034291 2.321301 -1.150017 0.662574 -0.428135 0.046 -0.261672 0.095808 1.248181 0.048002 -18.775471 16.732841 -24.812542 -70.722527 3.007914 -17.41749 -0.60012 0.106485 0.181999 -0.097144 1.068471 -2.404894 16.94615 13.550846 27.401384 64.450989 -1.661347 17.533344 2.083946 -0.186713 -0.130179 -0.025261 -1.467841 -4.476833 6.90883 11.412526 -5.497861 -0.031228 -2.205706 0.930627 -0.385868 -0.409973 0.284196 0.150758 -20.28274 -2.390574 -6.040601 4.679269 -3.780737 3.474597 -0.578656 0.272453 0.677317 0.157592 -0.190492 -0.09444 
-0.046762 0.550982 1.681322 63.42664 -78.552803 64.276543 -2.04203 -0.763167 0.601605 -1.735321 0.071116 0.914979 -4.200094 0.802502 2.224337 -1.146869 0.65585 -0.405537 0.046914 -0.29058 0.086611 1.281938 0.030063 -18.961067 15.460559 -26.298594 -70.326088 2.86836 -16.558575 -0.622609 0.111896 0.194825 -0.102337 1.073782 -2.437123 16.864416 13.566303 28.482056 64.276497 -1.241309 16.425602 1.956983 -0.2058 -0.142818 -0.027078 -1.970409 -4.667967 6.29992 12.294716 -5.697159 0.003881 -2.2113 0.874251 -0.423755 -0.396948 0.290287 0.158366 -18.662682 -2.568957 -5.816606 4.528218 -4.21711 3.529035 -0.831568 0.273365 0.728323 0.167453 -0.207523 -0.106241 
-0.062874 0.551796 1.688805 81.575775 -79.916687 82.214996 -1.990525 -0.829425 0.588134 -1.677376 0.045452 0.876619 -3.499282 0.484895 2.065988 -1.132122 0.65005 -0.360934 0.049055 -0.326528 0.070572 1.287111 0.022339 -18.978781 14.623401 -27.152884 -69.907768 2.567081 -16.173355 -0.523578 0.120178 0.210315 -0.111623 1.066142 -2.482117 16.750305 13.336617 29.213661 64.60643 -0.991294 15.309365 1.762154 -0.226382 -0.16318 -0.03143 -3.1061 -4.528388 5.701593 13.356914 -5.883182 0.030046 -2.177263 0.76101 -0.500804 -0.369498 0.31161 0.170872 -17.130112 -2.799239 -5.517914 4.634089 -4.609743 3.562586 -1.194334 0.261025 0.796311 0.181012 -0.227201 -0.119284 
-0.07595 0.552343 1.696272 102.721573 -80.620804 103.079956 -1.945481 -0.842298 0.613819 -1.581702 0.027337 0.898082 -2.923825 0.084162 2.097729 -1.142985 0.63144 -0.348957 0.049008 -0.359703 0.048589 1.269155 -0.064135 -19.063452 13.704639 -28.054842 -69.922188 2.274636 -15.890552 -0.462386 0.126749 0.223763 -0.122059 1.053993 -2.310742 16.529161 12.636449 29.643444 65.311829 -1.622962 14.141878 1.656584 -0.249548 -0.17756 -0.038558 -4.280107 -4.535231 5.434706 13.976007 -5.982821 -0.070112 -2.122431 0.702282 -0.560075 -0.349059 0.32428 0.184895 -16.281132 -2.956452 -5.293154 5.329338 -4.892465 3.594614 -1.623619 0.298981 0.888439 0.188663 -0.244139 -0.130483 
-0.090555 0.552891 1.702351 124.20311 -80.326035 124.17646 -1.916539 -0.84605 0.643645 -1.489218 0.007565 0.940769 -2.367179 -0.376618 2.263423 -1.144987 0.627965 -0.340207 0.052419 -0.392199 0.023267 1.230521 -0.171703 -19.164026 12.954014 -29.131874 -69.967468 2.251313 -15.672463 -0.368533 0.133113 0.239795 -0.134041 1.036451 -2.111038 16.228243 12.00141 29.971088 65.997902 -1.807732 13.363493 1.534188 -0.284129 -0.182768 -0.04897 -5.096144 -4.752203 5.318779 14.067394 -6.04355 -0.197939 -2.06406 0.676707 -0.619542 -0.333664 0.330902 0.198796 -15.181402 -3.106336 -4.892296 6.508871 -5.038696 3.604515 -2.002341 0.383031 0.986221 0.193227 -0.258023 -0.139207 
-0.106161 0.553309 1.705316 142.518417 -78.877869 142.190704 -1.892664 -0.842175 0.66265 -1.370451 -0.012749 1.017534 -2.066042 -0.920014 2.402385 -1.16303 0.623153 -0.317818 0.056725 -0.420944 -0.003213 1.163758 -0.301612 -19.220346 12.465236 -30.170599 -69.893784 2.404057 -15.448625 -0.2672 0.140284 0.256591 -0.14722 0.988291 -1.907191 15.919026 11.699269 30.317404 66.486732 -1.489884 12.930206 1.525062 -0.32468 -0.181419 -0.059799 -5.840979 -5.135024 5.408021 13.759488 -6.035252 -0.421158 -1.896232 0.691926 -0.657335 -0.314541 0.338246 0.209419 -14.03643 -3.229069 -4.489546 8.050551 -5.021537 3.542948 -2.33668 0.473901 1.081457 0.192642 -0.270815 -0.146533 
-0.124502 0.5537 1.704067 155.630554 -75.456932 155.258301 -1.883648 -0.825397 0.665998 -1.261515 -0.063179 1.079298 -1.783354 -1.471934 2.521601 -1.145974 0.618024 -0.28635 0.057775 -0.426658 -0.017978 1.135572 -0.353691 -19.281807 12.211965 -31.2537 -69.477409 2.57603 -15.248893 -0.189835 0.137725 0.251809 -0.142466 0.972319 -1.785672 15.680347 11.831088 30.929077 66.375816 -0.498058 12.943872 1.619995 -0.348316 -0.161781 -0.063522 -6.700029 -5.68544 5.702086 13.554397 -6.106228 -0.637881 -1.640755 0.702457 -0.674129 -0.297683 0.321546 0.210125 -13.047044 -3.229734 -4.132502 9.873942 -4.83911 3.412611 -2.617402 0.571334 1.144522 0.179815 -0.265056 -0.143737 
-0.144655 0.554133 1.699218 163.038727 -70.718292 162.730301 -1.912588 -0.796439 0.656438 -1.155123 -0.153294 1.129268 -1.696547 -1.992901 2.585356 -1.126061 0.593465 -0.25878 0.056121 -0.404578 -0.023971 1.139565 -0.324514 -19.322414 12.356319 -32.331871 -68.741966 2.985803 -15.132853 -0.200124 0.127855 0.231214 -0.125039 1.001084 -1.745656 15.504354 12.390754 31.668169 65.820953 0.990117 13.194403 1.784859 -0.348876 -0.129427 -0.061171 -7.568623 -6.132895 6.159116 13.259867 -6.106701 -0.852551 -1.405515 0.704247 -0.659328 -0.28795 0.285603 0.201773 -12.181394 -3.195669 -3.791494 11.75099 -4.484195 3.200494 -2.789839 0.654461 1.165366 0.152452 -0.241109 -0.131634 
-0.164963 0.554698 1.691879 166.20546 -66.835075 165.90303 -1.956971 -0.762968 0.628953 -1.065785 -0.260371 1.155998 -1.734128 -2.541029 2.562073 -1.126945 0.560196 -0.248316 0.052131 -0.365502 -0.026189 1.136691 -0.258997 -19.403238 12.591812 -33.177448 -67.953232 3.366932 -15.04775 -0.356629 0.11305 0.200762 -0.100942 1.045849 -1.640444 15.371947 13.256698 32.401814 65.302521 1.991701 13.194615 2.069798 -0.330858 -0.092406 -0.05497 -8.548242 -6.686048 6.708111 12.527762 -6.169959 -1.039369 -1.286943 0.700806 -0.625714 -0.262893 0.24281 0.188734 -11.569887 -3.190521 -3.5415 13.763487 -4.018236 2.967572 -2.867267 0.713818 1.148385 0.108897 -0.203334 -0.112735 
-0.185117 0.555214 1.682777 167.695221 -63.081833 167.351608 -2.04374 -0.71871 0.611373 -1.009881 -0.340478 1.168707 -1.982352 -3.015637 2.508047 -1.124719 0.524852 -0.237869 0.04763 -0.317388 -0.026258 1.144782 -0.13597 -19.433752 13.056602 -33.655125 -67.067757 3.789852 -15.25743 -0.5586 0.095193 0.164888 -0.074101 1.098245 -1.506597 15.246785 14.170437 33.153099 64.846474 3.029346 13.182989 2.447698 -0.298749 -0.053542 -0.046462 -9.721231 -7.269547 7.268417 11.430567 -6.236337 -1.14698 -1.229871 0.675107 -0.592553 -0.218018 0.197112 0.170446 -10.96792 -3.205274 -3.229991 15.71529 -3.423969 2.727736 -2.901946 0.768302 1.112636 0.058794 -0.154645 -0.089073 
